<svg xmlns="http://www.w3.org/2000/svg" viewBox="0 0 850.39 850.39"><defs><style>.cls-1{fill:#efefe8;}.cls-2,.cls-4{fill:#186fb7;}.cls-2,.cls-3{stroke:#c1c0bc;stroke-linecap:round;stroke-linejoin:round;stroke-width:0.5px;}.cls-3{fill:none;}</style></defs><g id="SKET-MASTER"><polygon class="cls-1" points="756.83 342.03 756.83 445.66 740.65 466.38 109.74 466.38 93.56 445.66 93.56 342.03 109.74 321.3 740.65 321.3 756.83 342.03"/><rect class="cls-2" x="384.75" y="362.75" width="16.18" height="20.73"/><rect class="cls-2" x="368.58" y="342.03" width="16.18" height="20.72"/><rect class="cls-2" x="384.75" y="342.03" width="16.18" height="20.72"/><rect class="cls-2" x="400.93" y="342.03" width="16.18" height="20.72"/><rect class="cls-2" x="384.75" y="383.48" width="16.18" height="20.73"/><rect class="cls-2" x="384.75" y="404.21" width="16.18" height="20.73"/><rect class="cls-2" x="384.75" y="424.93" width="16.18" height="20.72"/><rect class="cls-2" x="675.94" y="362.75" width="16.18" height="20.73"/><rect class="cls-2" x="675.94" y="342.03" width="16.18" height="20.72"/><rect class="cls-2" x="692.12" y="342.03" width="16.18" height="20.72"/><rect class="cls-2" x="708.3" y="342.03" width="16.18" height="20.72"/><polygon class="cls-2" points="740.65 362.75 724.47 362.75 724.47 342.03 740.65 362.75"/><rect class="cls-2" x="692.12" y="383.48" width="16.18" height="20.73"/><rect class="cls-2" x="675.94" y="383.48" width="16.18" height="20.73"/><rect class="cls-2" x="675.94" y="404.21" width="16.18" height="20.73"/><rect class="cls-2" x="675.94" y="424.93" width="16.18" height="20.72"/><rect class="cls-2" x="692.12" y="424.93" width="16.18" height="20.72"/><rect class="cls-2" x="708.3" y="424.93" width="16.18" height="20.72"/><polygon class="cls-2" points="740.65 424.93 724.47 445.66 724.47 424.93 740.65 424.93"/><rect class="cls-2" x="708.3" y="383.48" width="16.18" height="20.73"/><polygon class="cls-2" points="158.27 362.75 158.27 383.48 142.09 383.48 142.09 362.75 150.18 373.11 158.27 362.75"/><rect class="cls-2" x="174.45" y="362.75" width="16.18" height="20.73"/><rect class="cls-2" x="109.74" y="342.03" width="16.18" height="20.72"/><rect class="cls-2" x="174.45" y="342.03" width="16.18" height="20.72"/><polygon class="cls-2" points="142.09 362.75 142.09 383.48 125.92 362.75 142.09 362.75"/><polygon class="cls-2" points="174.45 362.75 158.27 383.48 158.27 362.75 174.45 362.75"/><rect class="cls-2" x="142.09" y="383.48" width="16.18" height="20.73"/><rect class="cls-2" x="174.45" y="383.48" width="16.18" height="20.73"/><rect class="cls-2" x="174.45" y="404.21" width="16.18" height="20.73"/><rect class="cls-2" x="174.45" y="424.93" width="16.18" height="20.72"/><rect class="cls-2" x="109.74" y="424.93" width="16.18" height="20.72"/><rect class="cls-2" x="109.74" y="404.21" width="16.18" height="20.73"/><rect class="cls-2" x="109.74" y="383.48" width="16.18" height="20.73"/><rect class="cls-2" x="109.74" y="362.75" width="16.18" height="20.73"/><polygon class="cls-2" points="174.45 342.03 174.45 362.75 158.27 362.75 174.45 342.03"/><polygon class="cls-2" points="142.09 362.75 142.09 362.75 125.92 362.75 125.92 342.03 142.09 362.75"/><polyline class="cls-3" points="740.65 321.3 724.47 321.3 708.3 321.3 692.12 321.3 675.94 321.3 659.77 321.3 643.59 321.3 627.41 321.3 611.24 321.3 595.06 321.3 578.88 321.3 562.7 321.3 546.53 321.3 530.35 321.3 514.17 321.3 498 321.3 481.81 321.3 465.64 321.3 449.46 321.3 433.29 321.3 417.11 321.3 400.93 321.3 384.75 321.3 368.58 321.3 352.4 321.3 336.22 321.3 320.04 321.3 303.87 321.3 287.69 321.3 271.51 321.3 255.34 321.3 239.16 321.3 222.98 321.3 206.8 321.3 190.63 321.3 174.45 321.3 158.27 321.3 142.09 321.3 125.92 321.3 109.74 321.3"/><polyline class="cls-3" points="222.98 342.03 206.8 342.03 190.63 342.03"/><polyline class="cls-3" points="303.87 342.03 320.04 342.03 336.22 342.03"/><line class="cls-3" x1="433.28" y1="342.03" x2="417.11" y2="342.03"/><polyline class="cls-3" points="611.24 342.03 595.06 342.03 578.88 342.03 562.7 342.03"/><polyline class="cls-3" points="643.59 342.03 659.77 342.03 675.94 342.03 692.12 342.03 708.3 342.03 724.47 342.03 740.65 342.03 756.83 342.03"/><polyline class="cls-3" points="481.81 342.03 498 342.03 514.17 342.03 530.35 342.03"/><line class="cls-3" x1="368.58" y1="342.03" x2="352.4" y2="342.03"/><polyline class="cls-3" points="255.34 342.03 271.51 342.03 287.69 342.03"/><polyline class="cls-3" points="125.92 342.03 142.09 342.03 158.27 342.03 174.45 342.03"/><line class="cls-3" x1="109.74" y1="342.03" x2="93.56" y2="342.03"/><line class="cls-3" x1="206.8" y1="362.75" x2="190.63" y2="362.75"/><line class="cls-3" x1="287.69" y1="362.75" x2="271.51" y2="362.75"/><line class="cls-3" x1="368.58" y1="362.75" x2="352.4" y2="362.75"/><line class="cls-3" x1="675.94" y1="362.75" x2="659.77" y2="362.75"/><line class="cls-3" x1="756.83" y1="362.75" x2="740.65" y2="362.75"/><line class="cls-3" x1="595.06" y1="362.75" x2="578.88" y2="362.75"/><line class="cls-3" x1="514.17" y1="362.75" x2="498" y2="362.75"/><line class="cls-3" x1="433.28" y1="362.75" x2="417.11" y2="362.75"/><line class="cls-3" x1="336.22" y1="362.75" x2="320.04" y2="362.75"/><line class="cls-3" x1="158.27" y1="362.75" x2="142.09" y2="362.75"/><line class="cls-3" x1="109.74" y1="362.75" x2="93.56" y2="362.75"/><line class="cls-3" x1="142.09" y1="383.48" x2="125.92" y2="383.48"/><line class="cls-3" x1="206.8" y1="383.48" x2="190.63" y2="383.48"/><line class="cls-3" x1="287.69" y1="383.48" x2="271.51" y2="383.48"/><polyline class="cls-3" points="352.4 383.48 368.58 383.48 384.75 383.48"/><line class="cls-3" x1="514.17" y1="383.48" x2="498" y2="383.48"/><line class="cls-3" x1="595.06" y1="383.48" x2="578.88" y2="383.48"/><polyline class="cls-3" points="724.47 383.48 740.65 383.48 756.83 383.48"/><polyline class="cls-3" points="675.94 383.48 659.77 383.48 643.59 383.48"/><polyline class="cls-3" points="562.7 383.48 546.53 383.48 530.35 383.48"/><polyline class="cls-3" points="433.29 383.48 417.11 383.48 400.93 383.48"/><line class="cls-3" x1="320.04" y1="383.48" x2="303.87" y2="383.48"/><polyline class="cls-3" points="255.34 383.48 239.16 383.48 222.98 383.48"/><line class="cls-3" x1="174.45" y1="383.48" x2="158.27" y2="383.48"/><line class="cls-3" x1="109.74" y1="383.48" x2="93.56" y2="383.48"/><line class="cls-3" x1="142.09" y1="404.21" x2="125.92" y2="404.21"/><line class="cls-3" x1="206.8" y1="404.21" x2="190.63" y2="404.21"/><line class="cls-3" x1="287.69" y1="404.21" x2="271.51" y2="404.21"/><polyline class="cls-3" points="352.4 404.2 368.58 404.2 384.75 404.2"/><polyline class="cls-3" points="481.81 404.2 498 404.2 514.17 404.2"/><polyline class="cls-3" points="578.88 404.2 595.06 404.2 611.24 404.2"/><polyline class="cls-3" points="724.47 404.2 740.65 404.2 756.83 404.2"/><line class="cls-3" x1="675.94" y1="404.21" x2="659.77" y2="404.21"/><polyline class="cls-3" points="562.7 404.2 546.53 404.2 530.35 404.2"/><polyline class="cls-3" points="433.29 404.2 417.11 404.2 400.93 404.2"/><polyline class="cls-3" points="336.22 404.2 320.04 404.2 303.87 404.2"/><polyline class="cls-3" points="255.34 404.2 239.16 404.2 222.98 404.2"/><line class="cls-3" x1="174.45" y1="404.21" x2="158.27" y2="404.21"/><line class="cls-3" x1="109.74" y1="404.2" x2="93.56" y2="404.2"/><line class="cls-3" x1="206.8" y1="424.93" x2="190.63" y2="424.93"/><line class="cls-3" x1="287.69" y1="424.93" x2="271.51" y2="424.93"/><polyline class="cls-3" points="303.87 424.93 320.04 424.93 336.22 424.93"/><polyline class="cls-3" points="352.4 424.93 368.58 424.93 384.75 424.93"/><polyline class="cls-3" points="400.93 424.93 417.11 424.93 433.29 424.93"/><line class="cls-3" x1="514.17" y1="424.93" x2="498" y2="424.93"/><line class="cls-3" x1="595.06" y1="424.93" x2="578.88" y2="424.93"/><line class="cls-3" x1="756.83" y1="424.93" x2="740.65" y2="424.93"/><line class="cls-3" x1="675.94" y1="424.93" x2="659.77" y2="424.93"/><polyline class="cls-3" points="449.46 424.93 465.64 424.93 481.81 424.93"/><polyline class="cls-3" points="174.45 424.93 158.27 424.93 142.09 424.93 125.92 424.93"/><line class="cls-3" x1="109.74" y1="424.93" x2="93.56" y2="424.93"/><polyline class="cls-3" points="125.92 445.66 142.09 445.66 158.27 445.66 174.45 445.66"/><polyline class="cls-3" points="222.98 445.66 206.8 445.66 190.63 445.66"/><polyline class="cls-3" points="303.87 445.66 320.04 445.66 336.22 445.66"/><polyline class="cls-3" points="400.93 445.66 417.11 445.66 433.29 445.66"/><polyline class="cls-3" points="498 445.66 514.17 445.66 530.35 445.66"/><polyline class="cls-3" points="643.59 445.66 659.77 445.66 675.94 445.66 692.12 445.66 708.3 445.66 724.47 445.66 740.65 445.66 756.83 445.66"/><polyline class="cls-3" points="611.24 445.66 595.06 445.66 578.88 445.66 562.7 445.66"/><polyline class="cls-3" points="449.46 445.66 465.64 445.66 481.81 445.66"/><polyline class="cls-3" points="384.75 445.66 368.58 445.66 352.4 445.66"/><polyline class="cls-3" points="287.69 445.66 271.51 445.66 255.34 445.66"/><line class="cls-3" x1="109.74" y1="445.66" x2="93.56" y2="445.66"/><polyline class="cls-3" points="740.65 466.38 724.47 466.38 708.3 466.38 692.12 466.38 675.94 466.38 659.77 466.38 643.59 466.38 627.41 466.38 611.24 466.38 595.06 466.38 578.88 466.38 562.7 466.38 546.53 466.38 530.35 466.38 514.17 466.38 498 466.38 481.81 466.38 465.64 466.38 449.46 466.38 433.29 466.38 417.11 466.38 400.93 466.38 384.75 466.38 368.58 466.38 352.4 466.38 336.22 466.38 320.04 466.38 303.87 466.38 287.69 466.38 271.51 466.38 255.34 466.38 239.16 466.38 222.98 466.38 206.8 466.38 190.63 466.38 174.45 466.38 158.27 466.38 142.09 466.38 125.92 466.38 109.74 466.38 93.56 445.66"/><polyline class="cls-3" points="93.56 445.66 93.56 424.93 93.56 404.21 93.56 383.48 93.56 362.75 93.56 342.03 109.74 321.3"/><line class="cls-3" x1="109.74" y1="466.38" x2="109.74" y2="445.66"/><line class="cls-3" x1="109.74" y1="342.03" x2="109.74" y2="321.3"/><line class="cls-3" x1="125.92" y1="466.38" x2="125.92" y2="445.66"/><line class="cls-3" x1="125.92" y1="342.03" x2="125.92" y2="321.3"/><polyline class="cls-3" points="142.09 404.2 142.09 424.93 142.09 445.66 142.09 466.38"/><polyline class="cls-3" points="142.09 362.75 142.09 342.03 142.09 321.3"/><polyline class="cls-3" points="158.27 404.2 158.27 424.93 158.27 445.66 158.27 466.38"/><polyline class="cls-3" points="158.27 362.75 158.27 342.03 158.27 321.3"/><line class="cls-3" x1="174.45" y1="466.38" x2="174.45" y2="445.66"/><line class="cls-3" x1="174.45" y1="342.03" x2="174.45" y2="321.3"/><line class="cls-3" x1="190.63" y1="466.38" x2="190.63" y2="445.66"/><line class="cls-3" x1="190.63" y1="342.03" x2="190.63" y2="321.3"/><polyline class="cls-3" points="206.8 424.93 206.8 445.66 206.8 466.38"/><polyline class="cls-3" points="206.8 321.3 206.8 342.03 206.8 362.75"/><line class="cls-3" x1="222.98" y1="466.38" x2="222.98" y2="445.66"/><line class="cls-3" x1="222.98" y1="342.03" x2="222.98" y2="321.3"/><line class="cls-3" x1="239.16" y1="466.38" x2="239.16" y2="445.66"/><line class="cls-3" x1="239.16" y1="342.03" x2="239.16" y2="321.3"/><polyline class="cls-3" points="239.16 362.75 239.16 383.48 239.16 404.2 239.16 424.93"/><line class="cls-3" x1="255.34" y1="466.38" x2="255.34" y2="445.66"/><line class="cls-3" x1="255.34" y1="342.03" x2="255.34" y2="321.3"/><polyline class="cls-3" points="271.51 424.93 271.51 445.66 271.51 466.38"/><polyline class="cls-3" points="271.51 321.3 271.51 342.03 271.51 362.75"/><line class="cls-3" x1="287.69" y1="466.38" x2="287.69" y2="445.66"/><line class="cls-3" x1="287.69" y1="342.03" x2="287.69" y2="321.3"/><line class="cls-3" x1="303.87" y1="466.38" x2="303.87" y2="445.66"/><line class="cls-3" x1="303.87" y1="342.03" x2="303.87" y2="321.3"/><polyline class="cls-3" points="320.04 383.48 320.04 404.2 320.04 424.93 320.04 445.66 320.04 466.38"/><polyline class="cls-3" points="320.04 321.3 320.04 342.03 320.04 362.75"/><line class="cls-3" x1="336.22" y1="466.38" x2="336.22" y2="445.66"/><line class="cls-3" x1="336.22" y1="342.03" x2="336.22" y2="321.3"/><line class="cls-3" x1="352.4" y1="466.38" x2="352.4" y2="445.66"/><line class="cls-3" x1="352.4" y1="342.03" x2="352.4" y2="321.3"/><polyline class="cls-3" points="368.58 362.75 368.58 383.48 368.58 404.2 368.58 424.93 368.58 445.66 368.58 466.38"/><line class="cls-3" x1="368.58" y1="342.03" x2="368.58" y2="321.3"/><line class="cls-3" x1="384.75" y1="466.38" x2="384.75" y2="445.66"/><line class="cls-3" x1="384.75" y1="342.03" x2="384.75" y2="321.3"/><line class="cls-3" x1="400.93" y1="466.38" x2="400.93" y2="445.66"/><line class="cls-3" x1="400.93" y1="342.03" x2="400.93" y2="321.3"/><polyline class="cls-3" points="417.11 362.75 417.11 383.48 417.11 404.2 417.11 424.93 417.11 445.66 417.11 466.38"/><line class="cls-3" x1="417.11" y1="342.03" x2="417.11" y2="321.3"/><line class="cls-3" x1="433.28" y1="466.38" x2="433.28" y2="445.66"/><line class="cls-3" x1="433.28" y1="342.03" x2="433.28" y2="321.3"/><line class="cls-3" x1="449.46" y1="466.38" x2="449.46" y2="445.66"/><line class="cls-3" x1="449.46" y1="342.03" x2="449.46" y2="321.3"/><line class="cls-3" x1="465.64" y1="383.48" x2="465.64" y2="362.75"/><polyline class="cls-3" points="465.64 466.38 465.64 445.66 465.64 424.93 465.64 404.2"/><line class="cls-3" x1="465.64" y1="342.03" x2="465.64" y2="321.3"/><line class="cls-3" x1="481.82" y1="466.38" x2="481.82" y2="445.66"/><line class="cls-3" x1="481.82" y1="342.03" x2="481.82" y2="321.3"/><line class="cls-3" x1="498" y1="466.38" x2="498" y2="445.66"/><polyline class="cls-3" points="498 424.93 498 404.2 498 383.48"/><polyline class="cls-3" points="498 321.3 498 342.03 498 362.75"/><polyline class="cls-3" points="514.17 466.38 514.17 445.66 514.17 424.93"/><polyline class="cls-3" points="514.17 362.75 514.17 342.03 514.17 321.3"/><line class="cls-3" x1="530.35" y1="466.38" x2="530.35" y2="445.66"/><line class="cls-3" x1="530.35" y1="342.03" x2="530.35" y2="321.3"/><polyline class="cls-3" points="546.53 362.75 546.53 383.48 546.53 404.2 546.53 424.93"/><line class="cls-3" x1="546.53" y1="466.38" x2="546.53" y2="445.66"/><line class="cls-3" x1="546.53" y1="342.03" x2="546.53" y2="321.3"/><line class="cls-3" x1="562.7" y1="466.38" x2="562.7" y2="445.66"/><line class="cls-3" x1="562.7" y1="342.03" x2="562.7" y2="321.3"/><polyline class="cls-3" points="578.88 424.93 578.88 445.66 578.88 466.38"/><polyline class="cls-3" points="578.88 321.3 578.88 342.03 578.88 362.75"/><polyline class="cls-3" points="595.06 383.48 595.06 404.2 595.06 424.93 595.06 445.66 595.06 466.38"/><polyline class="cls-3" points="595.06 321.3 595.06 342.03 595.06 362.75"/><line class="cls-3" x1="611.24" y1="466.38" x2="611.24" y2="445.66"/><line class="cls-3" x1="611.24" y1="424.93" x2="611.24" y2="404.21"/><line class="cls-3" x1="611.24" y1="342.03" x2="611.24" y2="321.3"/><line class="cls-3" x1="627.41" y1="383.48" x2="627.41" y2="362.75"/><line class="cls-3" x1="627.41" y1="466.38" x2="627.41" y2="445.66"/><line class="cls-3" x1="627.41" y1="424.93" x2="627.41" y2="404.21"/><line class="cls-3" x1="627.41" y1="342.03" x2="627.41" y2="321.3"/><line class="cls-3" x1="643.59" y1="383.48" x2="643.59" y2="362.75"/><line class="cls-3" x1="643.59" y1="466.38" x2="643.59" y2="445.66"/><line class="cls-3" x1="643.59" y1="342.03" x2="643.59" y2="321.3"/><polyline class="cls-3" points="659.77 424.93 659.77 445.66 659.77 466.38"/><polyline class="cls-3" points="659.77 321.3 659.77 342.03 659.77 362.75 659.77 383.48 659.77 404.2"/><line class="cls-3" x1="675.94" y1="466.38" x2="675.94" y2="445.66"/><line class="cls-3" x1="675.94" y1="342.03" x2="675.94" y2="321.3"/><line class="cls-3" x1="692.12" y1="466.38" x2="692.12" y2="445.66"/><line class="cls-3" x1="692.12" y1="342.03" x2="692.12" y2="321.3"/><line class="cls-3" x1="708.3" y1="466.38" x2="708.3" y2="445.66"/><line class="cls-3" x1="708.3" y1="383.48" x2="708.3" y2="362.75"/><line class="cls-3" x1="708.3" y1="342.03" x2="708.3" y2="321.3"/><line class="cls-3" x1="708.3" y1="424.93" x2="708.3" y2="404.21"/><line class="cls-3" x1="724.47" y1="466.38" x2="724.47" y2="445.66"/><line class="cls-3" x1="724.47" y1="383.48" x2="724.47" y2="362.75"/><line class="cls-3" x1="724.47" y1="342.03" x2="724.47" y2="321.3"/><line class="cls-3" x1="724.47" y1="424.93" x2="724.47" y2="404.21"/><polyline class="cls-3" points="740.65 321.3 740.65 342.03 740.65 362.75 740.65 383.48 740.65 404.2 740.65 424.93 740.65 445.66 740.65 466.38"/><polyline class="cls-3" points="740.65 321.3 756.83 342.03 756.83 362.75 756.83 383.48 756.83 404.21 756.83 424.93 756.83 445.66 740.65 466.38"/><polygon class="cls-2" points="222.87 342.03 222.87 362.75 206.69 362.75 222.87 342.03"/><rect class="cls-2" x="206.69" y="383.48" width="16.18" height="20.73"/><rect class="cls-2" x="239.05" y="342.03" width="16.18" height="20.72"/><rect class="cls-2" x="222.87" y="342.03" width="16.18" height="20.72"/><rect class="cls-2" x="206.69" y="362.75" width="16.18" height="20.73"/><rect class="cls-2" x="255.45" y="362.75" width="16.18" height="20.73"/><rect class="cls-2" x="255.45" y="383.48" width="16.18" height="20.73"/><rect class="cls-2" x="206.8" y="404.21" width="16.18" height="20.73"/><rect class="cls-2" x="223.1" y="424.93" width="16.18" height="20.72"/><rect class="cls-2" x="239.27" y="424.93" width="16.18" height="20.72"/><rect class="cls-2" x="255.45" y="404.21" width="16.18" height="20.73"/><polygon class="cls-2" points="271.4 362.75 255.23 362.75 255.23 342.03 271.4 362.75"/><polygon class="cls-2" points="271.63 424.93 255.45 445.66 255.45 424.93 271.63 424.93"/><polygon class="cls-2" points="223.1 424.93 223.1 445.66 206.92 424.93 223.1 424.93"/><rect class="cls-2" x="336.22" y="362.75" width="16.18" height="20.73"/><rect class="cls-2" x="287.69" y="342.03" width="16.18" height="20.72"/><rect class="cls-2" x="336.22" y="342.03" width="16.18" height="20.72"/><rect class="cls-2" x="287.69" y="362.75" width="16.18" height="20.73"/><rect class="cls-2" x="287.69" y="383.48" width="16.18" height="20.73"/><rect class="cls-2" x="287.69" y="424.93" width="16.18" height="20.72"/><rect class="cls-2" x="287.69" y="404.21" width="16.18" height="20.73"/><rect class="cls-2" x="336.22" y="383.48" width="16.18" height="20.73"/><rect class="cls-2" x="336.22" y="404.21" width="16.18" height="20.73"/><rect class="cls-2" x="336.22" y="424.93" width="16.18" height="20.72"/><polygon class="cls-2" points="320.04 362.75 320.04 362.75 303.87 362.75 303.87 342.03 320.04 362.75"/><polygon class="cls-2" points="336.22 383.48 320.04 383.48 320.04 362.75 336.22 383.48"/><polygon class="cls-2" points="320.04 362.75 320.04 383.48 303.87 362.75 320.04 362.75"/><polygon class="cls-2" points="336.22 383.48 336.22 404.2 320.05 383.48 336.22 383.48"/><rect class="cls-2" x="433.28" y="362.75" width="16.18" height="20.73"/><rect class="cls-2" x="433.28" y="342.03" width="16.18" height="20.72"/><rect class="cls-2" x="449.46" y="342.03" width="16.18" height="20.72"/><rect class="cls-2" x="465.64" y="342.03" width="16.18" height="20.72"/><rect class="cls-2" x="449.46" y="383.48" width="16.18" height="20.73"/><rect class="cls-2" x="465.64" y="383.48" width="16.18" height="20.73"/><rect class="cls-2" x="433.28" y="383.48" width="16.18" height="20.73"/><rect class="cls-2" x="433.28" y="404.21" width="16.18" height="20.73"/><rect class="cls-2" x="433.28" y="424.93" width="16.18" height="20.72"/><rect class="cls-2" x="481.82" y="424.93" width="16.18" height="20.72"/><polygon class="cls-2" points="498 424.93 481.81 424.93 481.81 404.2 498 424.93"/><polygon class="cls-2" points="498 383.48 481.81 404.2 481.81 383.48 498 383.48"/><rect class="cls-2" x="481.82" y="362.75" width="16.18" height="20.73"/><polygon class="cls-2" points="498 362.75 481.81 362.75 481.81 342.03 498 362.75"/><polygon class="cls-2" points="481.81 404.2 481.81 424.93 465.64 404.2 481.81 404.2"/><polygon class="cls-2" points="530.35 342.03 530.35 362.75 514.17 362.75 530.35 342.03"/><rect class="cls-2" x="530.35" y="342.03" width="16.18" height="20.72"/><rect class="cls-2" x="546.53" y="342.03" width="16.18" height="20.72"/><rect class="cls-2" x="562.7" y="383.48" width="16.18" height="20.73"/><rect class="cls-2" x="514.17" y="362.75" width="16.18" height="20.73"/><rect class="cls-2" x="562.7" y="362.75" width="16.18" height="20.73"/><rect class="cls-2" x="514.17" y="383.48" width="16.18" height="20.73"/><rect class="cls-2" x="514.17" y="404.21" width="16.18" height="20.73"/><rect class="cls-2" x="562.7" y="404.21" width="16.18" height="20.73"/><rect class="cls-2" x="546.53" y="424.93" width="16.18" height="20.72"/><rect class="cls-2" x="530.35" y="424.93" width="16.18" height="20.72"/><polygon class="cls-2" points="530.35 424.93 530.35 445.66 514.17 424.93 530.35 424.93"/><polygon class="cls-2" points="578.88 424.93 562.7 445.66 562.7 424.93 578.88 424.93"/><polygon class="cls-2" points="578.88 362.75 562.7 362.75 562.7 342.03 578.88 362.75"/><polygon class="cls-2" points="611.24 342.03 611.24 362.75 595.06 362.75 611.24 342.03"/><polygon class="cls-2" points="611.24 383.48 611.24 404.2 595.06 383.48 611.24 383.48"/><polygon class="cls-2" points="659.77 404.2 643.59 404.2 643.59 383.48 659.77 404.2"/><rect class="cls-2" x="611.24" y="342.03" width="16.18" height="20.72"/><rect class="cls-2" x="627.41" y="342.03" width="16.18" height="20.72"/><rect class="cls-2" x="595.06" y="362.75" width="16.18" height="20.73"/><rect class="cls-2" x="611.24" y="383.48" width="16.18" height="20.73"/><rect class="cls-2" x="627.41" y="383.48" width="16.18" height="20.73"/><rect class="cls-2" x="627.41" y="424.93" width="16.18" height="20.72"/><rect class="cls-2" x="611.24" y="424.93" width="16.18" height="20.72"/><rect class="cls-2" x="643.59" y="404.21" width="16.18" height="20.73"/><polygon class="cls-2" points="659.77 362.75 643.59 362.75 643.59 342.03 659.77 362.75"/><polygon class="cls-2" points="659.77 424.93 643.59 445.66 643.59 424.93 659.77 424.93"/><polygon class="cls-2" points="611.24 424.93 611.24 445.66 595.06 424.93 611.24 424.93"/></g><g id="LOGO-EXPAND"><path class="cls-4" d="M316.69,492.08h12.63c3,0,5.14.56,6.47,1.69s2,3.24,2,6.33v1a6.86,6.86,0,0,1-.07,1,9.2,9.2,0,0,1-.41,2.14,3.77,3.77,0,0,1-1.15,1.76,3.87,3.87,0,0,1-1,.62A8.2,8.2,0,0,1,334,507l-.45.1-.45.1v.15a4.55,4.55,0,0,1,3.35,1.44,5.54,5.54,0,0,1,1,3.59v5.69h-5v-4.72l0-.58a3.08,3.08,0,0,0-1.11-2.69,5.09,5.09,0,0,0-2.83-.7h-7v8.69h-4.84Zm11.85,13.13a4.48,4.48,0,0,0,3.21-.92,4.28,4.28,0,0,0,.92-3.1,9.15,9.15,0,0,0-.53-3.6c-.35-.79-1.44-1.19-3.29-1.19h-7.32v8.81Z"/><path class="cls-4" d="M368.36,492.08V509.4a11.31,11.31,0,0,1-1.5,6.38c-1,1.47-3.05,2.26-6.17,2.37H360c-.24,0-.47,0-.71,0a6.34,6.34,0,0,1-.74,0h-.7a21.72,21.72,0,0,1-8.1-1.21c-1.95-.8-2.92-3.25-2.92-7.33v-17.6h5v17.57c0,1.87.4,3.07,1.19,3.59a7,7,0,0,0,3.76.77h1.72a8.49,8.49,0,0,0,3.72-.64c.84-.43,1.26-1.52,1.26-3.29v-18Z"/><path class="cls-4" d="M402,518.07h-8.26l-11-21.75h-.15l.15,21.75h-4.83v-26h8.22l11,21.74h.16l-.16-21.74H402Z"/><path class="cls-4" d="M448.56,508.75a5,5,0,0,0,0,.55c0,.18,0,.35,0,.51a4.87,4.87,0,0,0,0,.54c0,.18,0,.37,0,.55q0,4.59-2.63,5.94a14.65,14.65,0,0,1-6.69,1.34l-3.47,0c-3.66,0-6.07-.94-7.24-2.74s-1.76-4.39-1.76-7.74c0-.31,0-.63,0-.95s0-.65,0-1a3.77,3.77,0,0,0,0-.47c0-.15,0-.31,0-.46,0-.47,0-.95,0-1.43s0-1,0-1.42q0-6.54,2.92-8.34c1.95-1.19,4.88-1.79,8.81-1.79h2.72a13.8,13.8,0,0,1,3.37.55,4.58,4.58,0,0,1,2.63,2,5.53,5.53,0,0,1,.92,2.2,16,16,0,0,1,.25,2.36c0,.13,0,.27,0,.41a2.88,2.88,0,0,1,0,.41c0,.16,0,.31,0,.47s0,.31,0,.46h-4.95a3.33,3.33,0,0,1-.1-.58c0-.21,0-.41-.05-.62v-.28a6.14,6.14,0,0,0-.41-2c-.25-.61-1.05-1-2.4-1a8.07,8.07,0,0,0-1.11-.07h-2.71a6.79,6.79,0,0,0-.78,0,9.81,9.81,0,0,0-1.65.29,2.71,2.71,0,0,0-1.27.68,3.13,3.13,0,0,0-.68,1.15,4.92,4.92,0,0,0-.26,1.3c0,.19,0,.37-.05.55a5,5,0,0,0,0,.55c0,.41-.05.82-.06,1.22s0,.82,0,1.23c0,.83,0,1.67,0,2.51s0,1.69.06,2.52q0,3.9,1.32,4.81c.86.61,2.52.92,5,.92a13.85,13.85,0,0,0,3.8-.47q1.62-.46,1.62-3.12v-.82a1.78,1.78,0,0,1,0-.41v-.41Z"/><path class="cls-4" d="M461.81,513.7h12v4.37H456.74v-26h5.07Z"/><path class="cls-4" d="M503,492.08V509.4a11.31,11.31,0,0,1-1.5,6.38q-1.5,2.21-6.17,2.37h-.7c-.24,0-.47,0-.71,0a6.34,6.34,0,0,1-.74,0h-.7a21.72,21.72,0,0,1-8.1-1.21c-1.95-.8-2.93-3.25-2.93-7.33v-17.6h5v17.57c0,1.87.4,3.07,1.19,3.59a7,7,0,0,0,3.76.77h1.72a8.49,8.49,0,0,0,3.72-.64c.84-.43,1.26-1.52,1.26-3.29v-18Z"/><path class="cls-4" d="M512.58,492.08h13.29a9.18,9.18,0,0,1,5.36,1.32q1.85,1.32,1.85,5.18a10.51,10.51,0,0,1-.63,3.86,3.82,3.82,0,0,1-3,2.14v.16a4.51,4.51,0,0,1,3.41,1.85,7.73,7.73,0,0,1,.88,4c0,2.59-.54,4.49-1.62,5.68s-3,1.8-5.78,1.8H512.58ZM523.8,503a6.49,6.49,0,0,0,3.35-.63c.65-.41,1-1.41,1-3a3.36,3.36,0,0,0-.7-2.47,3.72,3.72,0,0,0-2.5-.64h-7.44V503Zm0,11.06a8.54,8.54,0,0,0,3.66-.6c.81-.4,1.21-1.46,1.21-3.18,0-1.53-.3-2.51-.91-2.94a5.6,5.6,0,0,0-3.1-.64h-7.21V514Z"/><rect class="cls-4" x="552.28" y="492.1" width="8.18" height="8.18"/><rect class="cls-4" x="552.28" y="508.46" width="8.18" height="8.18"/><rect class="cls-4" x="560.46" y="500.28" width="8.18" height="8.18"/><rect class="cls-4" x="568.64" y="492.1" width="8.18" height="8.18"/><rect class="cls-4" x="568.64" y="508.46" width="8.18" height="8.18"/><rect class="cls-4" x="576.82" y="500.28" width="8.18" height="8.18"/><rect class="cls-4" x="585" y="492.1" width="8.18" height="8.18"/><rect class="cls-4" x="585" y="508.46" width="8.18" height="8.18"/><rect class="cls-4" x="593.19" y="500.28" width="8.18" height="8.18"/><rect class="cls-4" x="601.37" y="492.1" width="8.18" height="8.18"/><rect class="cls-4" x="601.37" y="508.46" width="8.18" height="8.18"/><rect class="cls-4" x="609.55" y="500.28" width="8.18" height="8.18"/><rect class="cls-4" x="617.73" y="492.1" width="8.18" height="8.18"/><rect class="cls-4" x="617.73" y="508.46" width="8.18" height="8.18"/><rect class="cls-4" x="625.91" y="500.28" width="8.18" height="8.18"/><rect class="cls-4" x="634.1" y="492.1" width="8.18" height="8.18"/><rect class="cls-4" x="634.1" y="508.46" width="8.18" height="8.18"/><rect class="cls-4" x="642.28" y="500.28" width="8.18" height="8.18"/><rect class="cls-4" x="650.46" y="492.1" width="8.18" height="8.18"/><rect class="cls-4" x="650.46" y="508.46" width="8.18" height="8.18"/><rect class="cls-4" x="658.64" y="500.28" width="8.18" height="8.18"/><rect class="cls-4" x="666.83" y="492.1" width="8.18" height="8.18"/><rect class="cls-4" x="666.83" y="508.46" width="8.18" height="8.18"/><rect class="cls-4" x="675.01" y="500.28" width="8.18" height="8.18"/><rect class="cls-4" x="683.19" y="492.1" width="8.18" height="8.18"/><rect class="cls-4" x="683.19" y="508.46" width="8.18" height="8.18"/><rect class="cls-4" x="691.37" y="500.28" width="8.18" height="8.18"/><rect class="cls-4" x="699.55" y="492.1" width="8.18" height="8.18"/><rect class="cls-4" x="699.55" y="508.46" width="8.18" height="8.18"/><rect class="cls-4" x="707.74" y="500.28" width="8.18" height="8.18"/><rect class="cls-4" x="715.92" y="492.1" width="8.18" height="8.18"/><rect class="cls-4" x="715.92" y="508.46" width="8.18" height="8.18"/><rect class="cls-4" x="724.1" y="500.28" width="8.18" height="8.18"/><rect class="cls-4" x="732.28" y="492.1" width="8.18" height="8.18"/><rect class="cls-4" x="732.28" y="508.46" width="8.18" height="8.18"/><rect class="cls-4" x="748.65" y="492.1" width="8.18" height="8.18"/><rect class="cls-4" x="748.65" y="508.46" width="8.18" height="8.18"/><rect class="cls-4" x="740.47" y="500.28" width="8.18" height="8.18"/><rect class="cls-4" x="289.94" y="492.1" width="8.18" height="8.18" transform="translate(588.05 992.38) rotate(-180)"/><rect class="cls-4" x="289.94" y="508.46" width="8.18" height="8.18" transform="translate(588.05 1025.11) rotate(-180)"/><rect class="cls-4" x="281.75" y="500.28" width="8.18" height="8.18" transform="translate(571.69 1008.74) rotate(-180)"/><rect class="cls-4" x="273.57" y="492.1" width="8.18" height="8.18" transform="translate(555.33 992.38) rotate(-180)"/><rect class="cls-4" x="273.57" y="508.46" width="8.18" height="8.18" transform="translate(555.33 1025.11) rotate(-180)"/><rect class="cls-4" x="265.39" y="500.28" width="8.18" height="8.18" transform="translate(538.96 1008.74) rotate(-180)"/><rect class="cls-4" x="257.21" y="492.1" width="8.18" height="8.18" transform="translate(522.6 992.38) rotate(-180)"/><rect class="cls-4" x="257.21" y="508.46" width="8.18" height="8.18" transform="translate(522.6 1025.11) rotate(-180)"/><rect class="cls-4" x="249.03" y="500.28" width="8.18" height="8.18" transform="translate(506.23 1008.74) rotate(-180)"/><rect class="cls-4" x="240.84" y="492.1" width="8.18" height="8.18" transform="translate(489.87 992.38) rotate(-180)"/><rect class="cls-4" x="240.84" y="508.46" width="8.18" height="8.18" transform="translate(489.87 1025.11) rotate(-180)"/><rect class="cls-4" x="232.66" y="500.28" width="8.18" height="8.18" transform="translate(473.5 1008.74) rotate(-180)"/><rect class="cls-4" x="224.48" y="492.1" width="8.18" height="8.18" transform="translate(457.14 992.38) rotate(-180)"/><rect class="cls-4" x="224.48" y="508.46" width="8.18" height="8.18" transform="translate(457.14 1025.11) rotate(-180)"/><rect class="cls-4" x="216.3" y="500.28" width="8.18" height="8.18" transform="translate(440.78 1008.74) rotate(-180)"/><rect class="cls-4" x="208.11" y="492.1" width="8.18" height="8.18" transform="translate(424.41 992.38) rotate(-180)"/><rect class="cls-4" x="208.11" y="508.46" width="8.18" height="8.18" transform="translate(424.41 1025.11) rotate(-180)"/><rect class="cls-4" x="199.93" y="500.28" width="8.18" height="8.18" transform="translate(408.05 1008.74) rotate(-180)"/><rect class="cls-4" x="191.75" y="492.1" width="8.18" height="8.18" transform="translate(391.68 992.38) rotate(-180)"/><rect class="cls-4" x="191.75" y="508.46" width="8.18" height="8.18" transform="translate(391.68 1025.11) rotate(-180)"/><rect class="cls-4" x="183.57" y="500.28" width="8.18" height="8.18" transform="translate(375.32 1008.74) rotate(-180)"/><rect class="cls-4" x="175.39" y="492.1" width="8.18" height="8.18" transform="translate(358.95 992.38) rotate(-180)"/><rect class="cls-4" x="175.39" y="508.46" width="8.18" height="8.18" transform="translate(358.95 1025.11) rotate(-180)"/><rect class="cls-4" x="167.2" y="500.28" width="8.18" height="8.18" transform="translate(342.59 1008.74) rotate(-180)"/><rect class="cls-4" x="159.02" y="492.1" width="8.18" height="8.18" transform="translate(326.23 992.38) rotate(-180)"/><rect class="cls-4" x="159.02" y="508.46" width="8.18" height="8.18" transform="translate(326.23 1025.11) rotate(-180)"/><rect class="cls-4" x="150.84" y="500.28" width="8.18" height="8.18" transform="translate(309.86 1008.74) rotate(-180)"/><rect class="cls-4" x="142.66" y="492.1" width="8.18" height="8.18" transform="translate(293.5 992.38) rotate(-180)"/><rect class="cls-4" x="142.66" y="508.46" width="8.18" height="8.18" transform="translate(293.5 1025.11) rotate(-180)"/><rect class="cls-4" x="134.48" y="500.28" width="8.18" height="8.18" transform="translate(277.13 1008.74) rotate(-180)"/><rect class="cls-4" x="126.29" y="492.1" width="8.18" height="8.18" transform="translate(260.77 992.38) rotate(-180)"/><rect class="cls-4" x="126.29" y="508.46" width="8.18" height="8.18" transform="translate(260.77 1025.11) rotate(-180)"/><rect class="cls-4" x="118.11" y="500.28" width="8.18" height="8.18" transform="translate(244.4 1008.74) rotate(-180)"/><rect class="cls-4" x="109.93" y="492.1" width="8.18" height="8.18" transform="translate(228.04 992.38) rotate(-180)"/><rect class="cls-4" x="109.93" y="508.46" width="8.18" height="8.18" transform="translate(228.04 1025.11) rotate(-180)"/><rect class="cls-4" x="93.56" y="492.1" width="8.18" height="8.18" transform="translate(195.31 992.38) rotate(-180)"/><rect class="cls-4" x="93.56" y="508.46" width="8.18" height="8.18" transform="translate(195.31 1025.11) rotate(-180)"/><rect class="cls-4" x="101.75" y="500.28" width="8.18" height="8.18" transform="translate(211.67 1008.74) rotate(-180)"/><rect class="cls-4" x="93.56" y="479.65" width="663.27" height="4.21"/><rect class="cls-4" x="93.56" y="524.88" width="663.27" height="4.21"/></g></svg>